<?xml version="1.0" encoding="UTF-8" standalone="no"?>
<!-- Created with Inkscape (http://www.inkscape.org/) -->

<svg
   version="1.1"
   id="svg1"
   width="309.46207"
   height="293.23419"
   viewBox="0 0 309.46208 293.2342"
   sodipodi:docname="DerDieDasWhite.svg"
   inkscape:version="1.3.2 (091e20e, 2023-11-25, custom)"
   xmlns:inkscape="http://www.inkscape.org/namespaces/inkscape"
   xmlns:sodipodi="http://sodipodi.sourceforge.net/DTD/sodipodi-0.dtd"
   xmlns="http://www.w3.org/2000/svg"
   xmlns:svg="http://www.w3.org/2000/svg">
  <defs
     id="defs1" />
  <sodipodi:namedview
     id="namedview1"
     pagecolor="#ffffff"
     bordercolor="#000000"
     borderopacity="0.25"
     inkscape:showpageshadow="2"
     inkscape:pageopacity="0.0"
     inkscape:pagecheckerboard="0"
     inkscape:deskcolor="#d1d1d1"
     inkscape:zoom="0.87080205"
     inkscape:cx="409.96688"
     inkscape:cy="233.69261"
     inkscape:window-width="1920"
     inkscape:window-height="1017"
     inkscape:window-x="1912"
     inkscape:window-y="-8"
     inkscape:window-maximized="1"
     inkscape:current-layer="g1" />
  <g
     inkscape:groupmode="layer"
     inkscape:label="Image"
     id="g1"
     transform="translate(-192.96881,-289.33332)">
    <path
       style="fill:#ffffff;fill-opacity:1"
       d="m 461.70047,580.56784 c -5.99739,-2.62416 -15.96503,-12.5014 -17.07375,-16.91889 -2.19388,-8.74114 6.52538,-10.45191 12.28678,-2.41073 6.19779,8.65025 15.16903,11.52268 23.13011,7.40584 8.58713,-4.44057 9.75494,-16.35142 1.65603,-16.89023 -2.03482,-0.13537 -4.89967,-0.37625 -6.36634,-0.53528 -1.46666,-0.15903 -5.17063,-0.34827 -8.23103,-0.42053 -12.23115,-0.2888 -18.32831,-12.54174 -10.25714,-20.6129 4.07996,-4.07996 11.20281,-6.25534 17.76051,-5.42421 6.19544,0.78522 7.65265,2.55004 2.1993,2.66357 -5.35377,0.11144 -12.80497,5.15434 -12.80497,8.66628 0,2.16191 1.01782,2.60126 6.33333,2.73385 3.48334,0.0869 7.07697,0.062 7.98586,-0.0552 4.24099,-0.54709 13.01551,3.13071 16.45585,6.8974 7.4934,8.20423 6.22372,19.84675 -3.10576,28.47872 -8.7671,8.11162 -20.40706,10.60606 -29.96878,6.42231 z m -211.03382,-7.23088 c -2.56667,-0.65831 -13.36666,-1.85569 -24,-2.66085 -10.63333,-0.80516 -22.56534,-1.79009 -26.51559,-2.18875 l -7.18225,-0.72482 0.86277,-14.88129 c 0.96878,-16.70969 4.14629,-52.39529 6.37076,-71.54795 0.99377,-8.55639 1.16587,-28.67508 0.53036,-61.99999 -1.80771,-94.7929 -1.75658,-99.24245 1.15115,-100.17034 2.3112,-0.73752 2.34248,-0.93032 0.33333,-2.05469 -1.21946,-0.68245 -2.21719,-1.8464 -2.21719,-2.58658 0,-0.74017 0.60764,-0.97022 1.35031,-0.51122 0.74268,0.45899 3.29268,-0.13806 5.66667,-1.32678 5.48724,-2.74762 38.3916,-5.25894 54.98301,-4.1964 30.38844,1.94611 48.82235,7.81416 68.53733,21.81742 11.54591,8.20089 22.96306,19.01293 21.89755,20.73697 -0.4658,0.75367 -0.24345,0.99736 0.4941,0.54152 0.73755,-0.45583 6.45287,4.40147 12.70071,10.79399 12.3053,12.59027 15.56078,18.14364 31.52207,53.77199 10.65556,23.78503 11.31424,27.28658 10.48685,55.74811 -0.53931,18.55167 -1.27809,25.48587 -3.5448,33.27168 -4.55929,15.66042 -12.76484,28.74339 -26.88159,42.86014 -14.40509,14.40509 -21.91409,17.29108 -62.54555,24.03854 -12.19277,2.02479 -57.54733,2.9243 -64,1.2693 z m -30.66666,-42.22588 c 0,-0.97778 -0.9,-1.77778 -2,-1.77778 -1.1,0 -2,0.8 -2,1.77778 0,0.97778 0.9,1.77778 2,1.77778 1.1,0 2,-0.8 2,-1.77778 z m 58.66666,-9.71593 c 18.8327,-3.18183 29.90424,-6.5416 36.64028,-11.11886 2.82618,-1.92045 5.73099,-3.12555 6.45513,-2.67801 0.72413,0.44754 0.93208,0.19153 0.4621,-0.56892 -0.46998,-0.76044 0.23571,-2.80315 1.56821,-4.53934 1.33249,-1.73619 4.73332,-7.47476 7.55739,-12.75237 2.82407,-5.27761 5.71837,-9.2349 6.43179,-8.79399 0.71341,0.44092 0.91773,0.1878 0.45403,-0.56248 -0.4637,-0.75028 0.84927,-4.89298 2.91771,-9.20601 7.85188,-16.37243 7.91194,-20.15725 0.84964,-53.53867 -3.6116,-17.071 -8.24861,-26.05024 -19.99493,-38.71874 -6.8671,-7.40622 -22.06922,-17.51445 -34.08985,-22.66709 -3.26511,-1.39959 -11.33242,-3.28772 -17.92736,-4.19585 -6.59494,-0.90812 -13.70377,-2.1827 -15.79739,-2.8324 l -3.80659,-1.18128 1.13992,12.31275 c 1.34886,14.56964 1.00788,115.79564 -0.485,143.97979 l -1.04175,19.66704 6.66667,-0.007 c 3.66667,-0.004 13.56667,-1.17325 22,-2.59809 z m 70.0606,-98.12245 c -0.51002,-3.40109 -1.18427,-5.92684 -1.49831,-5.61279 -0.31405,0.31405 -0.18527,3.38526 0.28619,6.82491 0.47146,3.43966 1.1457,5.96541 1.49832,5.6128 0.35261,-0.35262 0.22383,-3.42383 -0.2862,-6.82492 z M 212.78452,376.34006 c -1.43399,-1.43399 -2.19527,0.57434 -1.18864,3.13575 0.94427,2.40275 1.01559,2.40691 1.48258,0.0865 0.26982,-1.34073 0.13755,-2.79073 -0.29394,-3.22222 z m 41.21546,-43.00675 c 0.45323,-0.73333 -0.41136,-1.33333 -1.92131,-1.33333 -1.50994,0 -2.74535,0.6 -2.74535,1.33333 0,0.73334 0.86459,1.33334 1.92131,1.33334 1.05672,0 2.29213,-0.6 2.74535,-1.33334 z m -41.53421,-4.62396 c 0.4131,-1.07652 0.17729,-2.31193 -0.52401,-2.74536 -0.70131,-0.43343 -1.27511,0.44735 -1.27511,1.9573 0,3.21942 0.74149,3.54421 1.79912,0.78806 z M 427.60925,564.7521 c -1.06247,-1.06247 -2.32134,-6.04289 -2.82858,-11.19065 -0.8218,-8.33997 -1.22997,-9.33649 -4.0445,-9.87453 -7.67763,-1.46767 -11.47446,0.37319 -16.28718,7.89668 -3.59403,5.61837 -5.28357,7.15135 -7.52793,6.83031 -4.28537,-0.61299 -4.29875,-4.55967 -0.0367,-10.84023 2.08028,-3.06554 3.78233,-7.06265 3.78233,-8.88245 0,-2.29065 1.12493,-3.84995 3.65594,-5.06762 2.01077,-0.96738 4.26491,-2.89674 5.00921,-4.28746 0.74429,-1.39073 3.74912,-5.29679 6.67739,-8.68015 2.92827,-3.38335 5.32413,-7.29395 5.32413,-8.69021 0,-3.87647 4.51737,-5.75163 7.04147,-2.92292 2.79517,3.13249 4.41698,10.07544 6.87057,29.41275 2.65319,20.9104 2.62079,23.31551 -0.35036,26.00436 -2.99338,2.70897 -4.79659,2.78126 -7.28574,0.29212 z m -5.18321,-34.31436 c -0.61176,-4.15757 -3.04688,-4.39547 -4.8344,-0.4723 -1.42244,3.12193 -1.2864,3.36786 1.86299,3.36786 2.72891,0 3.31364,-0.5698 2.97141,-2.89556 z m 46.74608,-66.56786 c -6.84681,-1.54588 -14.80396,-6.50223 -13.96191,-8.6966 0.38159,-0.99439 -0.0287,-1.66518 -0.9118,-1.49065 -0.88308,0.17454 -3.00509,-2.38266 -4.71558,-5.68266 -2.70275,-5.21434 -3.03344,-7.40371 -2.52539,-16.72011 0.88342,-16.20005 6.39872,-24.35349 17.30523,-25.58281 17.76147,-2.00197 21.23702,15.28955 4.62744,23.02247 -3.84457,1.78992 -7.77958,3.26026 -8.74446,3.26743 -0.96488,0.007 -2.88257,0.61684 -4.26154,1.35485 -2.42942,1.30018 -2.41636,1.51209 0.42098,6.82838 4.66961,8.74938 9.24346,11.82979 17.56507,11.82979 6.38084,0 7.93713,-0.63009 15.38546,-6.2291 8.98084,-6.75102 12.2474,-6.79006 13.04828,-0.15595 0.49081,4.06572 -5.84248,12.21914 -8.65351,11.14044 -1.06843,-0.40999 -1.52661,-0.13861 -1.05482,0.62476 0.92624,1.49869 -8.46827,5.93235 -14.6956,6.93547 -2.2,0.35438 -6.17253,0.15381 -8.82785,-0.44571 z m -6.50548,-37.67289 c 5.30998,-2.8101 12.2341,-10.07287 11.19937,-11.74711 -0.37955,-0.61411 -3.00134,-1.11657 -5.8262,-1.11657 -4.09855,0 -5.83353,0.82882 -8.58837,4.10276 -1.89873,2.25652 -3.80856,5.52242 -4.24405,7.25755 -0.84287,3.35828 0.56313,7.0292 1.95925,5.11537 0.45833,-0.62829 2.93333,-2.25369 5.5,-3.612 z m -38.67667,32.45096 c -0.79043,-1.47694 -1.05766,-4.70823 -0.59383,-7.18064 0.50708,-2.70298 0.26397,-4.85334 -0.60976,-5.39333 -0.91479,-0.56537 -1.45307,-6.68614 -1.45307,-16.52269 0,-17.07492 1.4921,-21.55131 7.18363,-21.55131 5.04836,0 6.08069,4.43636 6.46128,27.76682 0.33006,20.23262 0.17266,21.90074 -2.23309,23.66667 -3.63745,2.67005 -7.07064,2.36203 -8.75516,-0.78552 z m -37.79605,-93.64797 c -6.27641,-5.7265 -19.55118,-35.05859 -17.42404,-38.50037 0.39814,-0.64421 -0.96221,-1.83603 -3.023,-2.64849 -3.70639,-1.46122 -3.6532,-1.51175 4.91976,-4.6733 4.76667,-1.75786 12.59601,-5.04954 17.39853,-7.31485 9.30181,-4.38757 14.09161,-4.63872 16.45848,-0.86299 3.65985,5.83835 -8.10708,12.63134 -22.973,13.26219 -11.35054,0.48168 -11.79093,1.49765 -5.45177,12.57734 l 4.0989,7.16412 7.56776,-5.79434 c 12.13172,-9.2888 18.42079,-12.47211 21.20463,-10.73307 1.29972,0.81194 2.56573,2.50658 2.81334,3.76588 0.50649,2.57585 -3.31902,7.42455 -5.85779,7.42455 -0.91352,0 -4.87053,1.49413 -8.79335,3.3203 -3.92282,1.82617 -8.78239,3.32617 -10.79906,3.33334 -4.46885,0.0159 -4.55023,0.99384 -0.56716,6.81584 4.04152,5.90745 7.46269,5.65526 18.58655,-1.3701 8.92031,-5.63368 12.65019,-6.56313 15.38061,-3.83272 2.99268,2.99269 1.61186,6.26373 -4.3862,10.3905 -5.36153,3.68883 -21.48566,10.67617 -24.63655,10.67617 -0.6757,0 -2.70819,-1.35 -4.51664,-3 z m 51.68015,-13.20371 c -1.78294,-2.88486 -12.54076,-25.26907 -12.54076,-26.09404 0,-0.43022 1.20368,0.3071 2.67484,1.63848 1.47116,1.33138 3.04933,2.04621 3.50704,1.5885 1.03846,-1.03846 -6.13386,-9.81208 -8.84855,-10.82407 -1.1,-0.41007 -3.93219,-4.94882 -6.29375,-10.08613 -4.22172,-9.18386 -4.53584,-14.21183 -0.79828,-12.77759 1.04346,0.40041 1.54642,0.16044 1.11769,-0.53326 -0.95819,-1.55037 6.13906,-5.37484 9.97434,-5.37484 9.07462,0 20,12.65362 20,23.16371 0,4.1846 0.48049,4.77874 5,6.18274 18.70171,5.80973 30.06948,16.38406 24.06666,22.38688 -2.6657,2.6657 -6.81693,1.80866 -11.73333,-2.42239 -5.61225,-4.82991 -16.92488,-8.70386 -21.82523,-7.47395 -4.2259,1.06063 -4.2935,1.91859 -0.76197,9.67077 1.51037,3.31547 2.56037,7.32642 2.33333,8.91322 -0.46708,3.26454 -4.29397,4.59532 -5.87203,2.04197 z m -3.21405,-38.12962 c -0.009,-8.86717 -4.74348,-14.48024 -11.66005,-13.82465 -2.58047,0.2446 -2.02616,2.69059 2.66667,11.767 5.51157,10.65995 9.00321,11.45882 8.99338,2.05765 z"
       id="path1" />
  </g>
</svg>
